<mxfile host="app.diagrams.net" modified="2022-02-10T07:42:55.658Z" agent="5.0 (Macintosh; Intel Mac OS X 10_15_7) AppleWebKit/537.36 (KHTML, like Gecko) Chrome/97.0.4692.99 Safari/537.36" etag="CsQeSHp0MdgU7REQhisu" version="15.7.3" type="github">
  <diagram name="Page-1" id="d66fe2ae-3e9f-cf2f-6d29-e24063ad5d60">
    <mxGraphModel dx="1426" dy="826" grid="1" gridSize="10" guides="1" tooltips="1" connect="1" arrows="1" fold="1" page="1" pageScale="1" pageWidth="1169" pageHeight="827" background="none" math="0" shadow="0">
      <root>
        <mxCell id="0" />
        <mxCell id="1" parent="0" />
        <mxCell id="r-5wEKoVIx4eEHZj96Cq-2" value="&lt;font face=&quot;Verdana&quot;&gt;Cluster Basic Infrastructure&lt;/font&gt;" style="text;html=1;strokeColor=none;fillColor=none;align=center;verticalAlign=middle;whiteSpace=wrap;rounded=0;fontSize=18;" vertex="1" parent="1">
          <mxGeometry x="40" y="20" width="280" height="30" as="geometry" />
        </mxCell>
        <mxCell id="r-5wEKoVIx4eEHZj96Cq-5" value="" style="sketch=0;aspect=fixed;pointerEvents=1;shadow=0;dashed=0;html=1;strokeColor=none;labelPosition=center;verticalLabelPosition=bottom;verticalAlign=top;align=center;fillColor=#00188D;shape=mxgraph.mscae.enterprise.server_farm;fontFamily=Verdana;fontSize=18;" vertex="1" parent="1">
          <mxGeometry x="130" y="330" width="100" height="64" as="geometry" />
        </mxCell>
        <mxCell id="r-5wEKoVIx4eEHZj96Cq-6" value="Physical Nodes" style="text;html=1;strokeColor=none;fillColor=none;align=center;verticalAlign=middle;whiteSpace=wrap;rounded=0;fontFamily=Verdana;fontSize=14;" vertex="1" parent="1">
          <mxGeometry x="90" y="414" width="150" height="30" as="geometry" />
        </mxCell>
        <mxCell id="r-5wEKoVIx4eEHZj96Cq-7" value="" style="sketch=0;aspect=fixed;pointerEvents=1;shadow=0;dashed=0;html=1;strokeColor=none;labelPosition=center;verticalLabelPosition=bottom;verticalAlign=top;align=center;fillColor=#00188D;shape=mxgraph.mscae.enterprise.device;fontFamily=Verdana;fontSize=14;" vertex="1" parent="1">
          <mxGeometry x="390" y="130" width="50" height="26" as="geometry" />
        </mxCell>
        <mxCell id="r-5wEKoVIx4eEHZj96Cq-8" value="" style="shape=curlyBracket;whiteSpace=wrap;html=1;rounded=1;fontFamily=Verdana;fontSize=14;align=right;" vertex="1" parent="1">
          <mxGeometry x="70" y="170" width="20" height="260" as="geometry" />
        </mxCell>
        <mxCell id="r-5wEKoVIx4eEHZj96Cq-9" value="On-premises&lt;br&gt;UniBwM" style="text;html=1;strokeColor=none;fillColor=none;align=center;verticalAlign=middle;whiteSpace=wrap;rounded=0;fontFamily=Verdana;fontSize=14;" vertex="1" parent="1">
          <mxGeometry x="10" y="270" width="60" height="30" as="geometry" />
        </mxCell>
        <mxCell id="r-5wEKoVIx4eEHZj96Cq-10" value="" style="shape=image;html=1;verticalAlign=top;verticalLabelPosition=bottom;labelBackgroundColor=#ffffff;imageAspect=0;aspect=fixed;image=https://cdn2.iconfinder.com/data/icons/flags_gosquared/64/Germany_flat.png;fontFamily=Verdana;fontSize=14;" vertex="1" parent="1">
          <mxGeometry x="25" y="310" width="30" height="30" as="geometry" />
        </mxCell>
        <mxCell id="r-5wEKoVIx4eEHZj96Cq-11" value="" style="group" vertex="1" connectable="0" parent="1">
          <mxGeometry x="120" y="240" width="240" height="60" as="geometry" />
        </mxCell>
        <mxCell id="r-5wEKoVIx4eEHZj96Cq-1" value="OpenShift Container Platform" style="rounded=0;whiteSpace=wrap;html=1;align=right;spacingRight=8;" vertex="1" parent="r-5wEKoVIx4eEHZj96Cq-11">
          <mxGeometry width="240" height="60" as="geometry" />
        </mxCell>
        <mxCell id="r-5wEKoVIx4eEHZj96Cq-4" value="" style="sketch=0;aspect=fixed;html=1;points=[];align=center;image;fontSize=12;image=img/lib/mscae/OpenShift.svg;fontFamily=Verdana;" vertex="1" parent="r-5wEKoVIx4eEHZj96Cq-11">
          <mxGeometry x="10" y="7" width="50" height="46" as="geometry" />
        </mxCell>
        <mxCell id="r-5wEKoVIx4eEHZj96Cq-12" value="" style="sketch=0;aspect=fixed;pointerEvents=1;shadow=0;dashed=0;html=1;strokeColor=none;labelPosition=center;verticalLabelPosition=bottom;verticalAlign=top;align=center;fillColor=#00188D;shape=mxgraph.mscae.enterprise.server_farm;fontFamily=Verdana;fontSize=18;" vertex="1" parent="1">
          <mxGeometry x="240" y="330" width="100" height="64" as="geometry" />
        </mxCell>
      </root>
    </mxGraphModel>
  </diagram>
</mxfile>
